<svg width="262" height="53" viewBox="0 0 262 53" fill="none" xmlns="http://www.w3.org/2000/svg">
<path d="M0 26.7402C0 12.3808 11.6406 0.740234 26 0.740234H236C250.359 0.740234 262 12.3808 262 26.7402C262 41.0996 250.359 52.7402 236 52.7402H26C11.6406 52.7402 0 41.0996 0 26.7402Z" fill="url(#paint0_linear_625_4400)"/>
<path d="M38.8693 19.1948L42.9176 31.0414H43.081L47.1293 19.1948H49.5014L44.267 33.7402H41.7315L36.4972 19.1948H38.8693ZM51.4315 33.7402V22.8311H53.555V33.7402H51.4315ZM52.5039 21.1479C52.1346 21.1479 51.8174 21.0248 51.5522 20.7786C51.2918 20.5276 51.1616 20.2293 51.1616 19.8837C51.1616 19.5333 51.2918 19.235 51.5522 18.9888C51.8174 18.7379 52.1346 18.6124 52.5039 18.6124C52.8732 18.6124 53.1881 18.7379 53.4485 18.9888C53.7137 19.235 53.8462 19.5333 53.8462 19.8837C53.8462 20.2293 53.7137 20.5276 53.4485 20.7786C53.1881 21.0248 52.8732 21.1479 52.5039 21.1479ZM61.1136 33.9604C60.0388 33.9604 59.1132 33.7308 58.3366 33.2715C57.5649 32.8075 56.9683 32.1564 56.5469 31.3184C56.1302 30.4756 55.9219 29.4883 55.9219 28.3567C55.9219 27.2393 56.1302 26.2544 56.5469 25.4022C56.9683 24.5499 57.5554 23.8846 58.3082 23.4064C59.0658 22.9282 59.9512 22.6891 60.9645 22.6891C61.58 22.6891 62.1766 22.7909 62.7543 22.9945C63.3319 23.1981 63.8504 23.5177 64.3097 23.9533C64.7689 24.3889 65.1312 24.9547 65.3963 25.6507C65.6615 26.342 65.794 27.1825 65.794 28.1721V28.9249H57.1222V27.334H63.7131C63.7131 26.7753 63.5994 26.2805 63.3722 25.8496C63.1449 25.414 62.8253 25.0707 62.4134 24.8198C62.0062 24.5688 61.5279 24.4434 60.9787 24.4434C60.3821 24.4434 59.8613 24.5901 59.4162 24.8837C58.9759 25.1725 58.6349 25.5513 58.3935 26.0201C58.1567 26.4841 58.0384 26.9883 58.0384 27.5328V28.7757C58.0384 29.5049 58.1662 30.1252 58.4219 30.6365C58.6823 31.1479 59.0445 31.5385 59.5085 31.8084C59.9725 32.0736 60.5147 32.2061 61.1349 32.2061C61.5374 32.2061 61.9044 32.1493 62.2358 32.0357C62.5672 31.9173 62.8537 31.7421 63.0952 31.5101C63.3366 31.2781 63.5213 30.9917 63.6491 30.6507L65.6591 31.013C65.4981 31.6048 65.2093 32.1233 64.7926 32.5684C64.3807 33.0087 63.8622 33.352 63.2372 33.5982C62.617 33.8397 61.9091 33.9604 61.1136 33.9604ZM70.4957 33.7402L67.2855 22.8311H69.4801L71.6179 30.8425H71.7244L73.8693 22.8311H76.0639L78.1946 30.807H78.3011L80.4247 22.8311H82.6193L79.4162 33.7402H77.25L75.0341 25.8638H74.8707L72.6548 33.7402H70.4957ZM91.3267 33.7402H88.9972L94.2315 19.1948H96.767L102.001 33.7402H99.6719L95.5597 21.8368H95.446L91.3267 33.7402ZM91.7173 28.0442H99.2741V29.8908H91.7173V28.0442ZM106.055 19.1948V33.7402H103.931V19.1948H106.055ZM111.036 19.1948V33.7402H108.912V19.1948H111.036ZM119.356 33.7402V19.1948H128.376V21.084H121.55V25.5158H127.729V27.3979H121.55V33.7402H119.356ZM130.767 33.7402V22.8311H132.82V24.5641H132.934C133.132 23.977 133.483 23.5153 133.985 23.1792C134.491 22.8382 135.064 22.6678 135.703 22.6678C135.836 22.6678 135.992 22.6725 136.172 22.682C136.357 22.6915 136.501 22.7033 136.605 22.7175V24.7488C136.52 24.7251 136.369 24.699 136.151 24.6706C135.933 24.6375 135.715 24.6209 135.498 24.6209C134.996 24.6209 134.548 24.7274 134.155 24.9405C133.767 25.1489 133.459 25.44 133.232 25.8141C133.005 26.1834 132.891 26.6048 132.891 27.0783V33.7402H130.767ZM141.52 33.9817C140.829 33.9817 140.204 33.8539 139.645 33.5982C139.087 33.3378 138.644 32.9614 138.317 32.4689C137.995 31.9765 137.834 31.3728 137.834 30.6578C137.834 30.0423 137.953 29.5357 138.189 29.138C138.426 28.7402 138.746 28.4254 139.148 28.1934C139.551 27.9614 140 27.7862 140.498 27.6678C140.995 27.5494 141.501 27.4595 142.017 27.3979C142.671 27.3221 143.201 27.2606 143.608 27.2132C144.016 27.1612 144.311 27.0783 144.496 26.9647C144.681 26.851 144.773 26.6664 144.773 26.4107V26.361C144.773 25.7407 144.598 25.2601 144.248 24.9192C143.902 24.5783 143.386 24.4078 142.699 24.4078C141.984 24.4078 141.421 24.5665 141.009 24.8837C140.602 25.1962 140.32 25.5442 140.164 25.9277L138.168 25.4732C138.405 24.8103 138.75 24.2753 139.205 23.8681C139.664 23.4561 140.192 23.1578 140.789 22.9732C141.385 22.7838 142.013 22.6891 142.671 22.6891C143.106 22.6891 143.568 22.7412 144.056 22.8453C144.548 22.9448 145.007 23.1294 145.434 23.3993C145.864 23.6692 146.217 24.0551 146.492 24.557C146.766 25.0542 146.904 25.7005 146.904 26.4959V33.7402H144.83V32.2488H144.745C144.607 32.5234 144.401 32.7933 144.127 33.0584C143.852 33.3236 143.499 33.5437 143.069 33.7189C142.638 33.8941 142.122 33.9817 141.52 33.9817ZM141.982 32.2772C142.569 32.2772 143.071 32.1612 143.488 31.9292C143.909 31.6971 144.229 31.3941 144.446 31.0201C144.669 30.6413 144.78 30.2364 144.78 29.8056V28.3993C144.704 28.4751 144.558 28.5461 144.34 28.6124C144.127 28.6739 143.883 28.7284 143.608 28.7757C143.334 28.8184 143.066 28.8586 142.806 28.8965C142.545 28.9296 142.328 28.958 142.152 28.9817C141.74 29.0338 141.364 29.1214 141.023 29.2445C140.687 29.3676 140.417 29.5452 140.213 29.7772C140.015 30.0044 139.915 30.3075 139.915 30.6863C139.915 31.2118 140.109 31.6096 140.498 31.8794C140.886 32.1446 141.381 32.2772 141.982 32.2772ZM154.306 38.0584C153.44 38.0584 152.694 37.9448 152.069 37.7175C151.449 37.4902 150.942 37.1896 150.549 36.8155C150.156 36.4415 149.862 36.0319 149.668 35.5868L151.494 34.834C151.621 35.0423 151.792 35.2625 152.005 35.4945C152.223 35.7312 152.516 35.9325 152.886 36.0982C153.26 36.2639 153.74 36.3468 154.327 36.3468C155.132 36.3468 155.798 36.1503 156.323 35.7573C156.849 35.369 157.112 34.7488 157.112 33.8965V31.7516H156.977C156.849 31.9836 156.664 32.2417 156.423 32.5257C156.186 32.8098 155.859 33.056 155.442 33.2644C155.026 33.4727 154.484 33.5769 153.816 33.5769C152.954 33.5769 152.178 33.3757 151.487 32.9732C150.8 32.566 150.255 31.967 149.853 31.1763C149.455 30.3809 149.256 29.4031 149.256 28.2431C149.256 27.083 149.453 26.0887 149.846 25.2601C150.244 24.4315 150.788 23.7971 151.479 23.3567C152.171 22.9116 152.954 22.6891 153.83 22.6891C154.507 22.6891 155.054 22.8027 155.471 23.03C155.888 23.2525 156.212 23.513 156.444 23.8113C156.681 24.1096 156.863 24.3723 156.991 24.5996H157.147V22.8311H159.228V33.9817C159.228 34.9192 159.01 35.6886 158.575 36.29C158.139 36.8913 157.549 37.3364 156.806 37.6252C156.067 37.914 155.234 38.0584 154.306 38.0584ZM154.285 31.8155C154.896 31.8155 155.412 31.6735 155.833 31.3894C156.259 31.1006 156.581 30.6886 156.799 30.1536C157.022 29.6138 157.133 28.9675 157.133 28.2147C157.133 27.4808 157.024 26.8345 156.806 26.2757C156.588 25.717 156.269 25.2814 155.847 24.9689C155.426 24.6517 154.905 24.4931 154.285 24.4931C153.646 24.4931 153.113 24.6588 152.687 24.9902C152.261 25.3169 151.939 25.762 151.721 26.3255C151.508 26.8889 151.401 27.5186 151.401 28.2147C151.401 28.9296 151.51 29.557 151.728 30.0968C151.946 30.6365 152.268 31.0579 152.694 31.361C153.125 31.664 153.655 31.8155 154.285 31.8155ZM162.076 33.7402V22.8311H164.129V24.5641H164.242C164.441 23.977 164.791 23.5153 165.293 23.1792C165.8 22.8382 166.373 22.6678 167.012 22.6678C167.145 22.6678 167.301 22.6725 167.481 22.682C167.665 22.6915 167.81 22.7033 167.914 22.7175V24.7488C167.829 24.7251 167.677 24.699 167.46 24.6706C167.242 24.6375 167.024 24.6209 166.806 24.6209C166.304 24.6209 165.857 24.7274 165.464 24.9405C165.076 25.1489 164.768 25.44 164.54 25.8141C164.313 26.1834 164.2 26.6048 164.2 27.0783V33.7402H162.076ZM172.829 33.9817C172.138 33.9817 171.513 33.8539 170.954 33.5982C170.395 33.3378 169.952 32.9614 169.626 32.4689C169.304 31.9765 169.143 31.3728 169.143 30.6578C169.143 30.0423 169.261 29.5357 169.498 29.138C169.735 28.7402 170.054 28.4254 170.457 28.1934C170.859 27.9614 171.309 27.7862 171.806 27.6678C172.303 27.5494 172.81 27.4595 173.326 27.3979C173.979 27.3221 174.51 27.2606 174.917 27.2132C175.324 27.1612 175.62 27.0783 175.805 26.9647C175.989 26.851 176.082 26.6664 176.082 26.4107V26.361C176.082 25.7407 175.906 25.2601 175.556 24.9192C175.21 24.5783 174.694 24.4078 174.008 24.4078C173.293 24.4078 172.729 24.5665 172.317 24.8837C171.91 25.1962 171.629 25.5442 171.472 25.9277L169.477 25.4732C169.713 24.8103 170.059 24.2753 170.513 23.8681C170.973 23.4561 171.501 23.1578 172.097 22.9732C172.694 22.7838 173.321 22.6891 173.979 22.6891C174.415 22.6891 174.877 22.7412 175.364 22.8453C175.857 22.9448 176.316 23.1294 176.742 23.3993C177.173 23.6692 177.526 24.0551 177.8 24.557C178.075 25.0542 178.212 25.7005 178.212 26.4959V33.7402H176.138V32.2488H176.053C175.916 32.5234 175.71 32.7933 175.435 33.0584C175.161 33.3236 174.808 33.5437 174.377 33.7189C173.946 33.8941 173.43 33.9817 172.829 33.9817ZM173.29 32.2772C173.878 32.2772 174.379 32.1612 174.796 31.9292C175.218 31.6971 175.537 31.3941 175.755 31.0201C175.978 30.6413 176.089 30.2364 176.089 29.8056V28.3993C176.013 28.4751 175.866 28.5461 175.648 28.6124C175.435 28.6739 175.192 28.7284 174.917 28.7757C174.642 28.8184 174.375 28.8586 174.114 28.8965C173.854 28.9296 173.636 28.958 173.461 28.9817C173.049 29.0338 172.673 29.1214 172.332 29.2445C171.996 29.3676 171.726 29.5452 171.522 29.7772C171.323 30.0044 171.224 30.3075 171.224 30.6863C171.224 31.2118 171.418 31.6096 171.806 31.8794C172.194 32.1446 172.689 32.2772 173.29 32.2772ZM183.164 27.263V33.7402H181.041V22.8311H183.079V24.6067H183.214C183.465 24.0291 183.858 23.565 184.393 23.2147C184.933 22.8643 185.612 22.6891 186.431 22.6891C187.175 22.6891 187.826 22.8453 188.385 23.1578C188.943 23.4656 189.377 23.9249 189.684 24.5357C189.992 25.1465 190.146 25.9017 190.146 26.8013V33.7402H188.022V27.057C188.022 26.2663 187.816 25.6484 187.404 25.2033C186.993 24.7535 186.427 24.5286 185.707 24.5286C185.215 24.5286 184.777 24.6351 184.393 24.8482C184.014 25.0613 183.714 25.3738 183.491 25.7857C183.273 26.1929 183.164 26.6853 183.164 27.263ZM197.589 33.9604C196.533 33.9604 195.624 33.7213 194.862 33.2431C194.104 32.7601 193.522 32.0949 193.115 31.2473C192.708 30.3998 192.504 29.4292 192.504 28.3354C192.504 27.2274 192.712 26.2497 193.129 25.4022C193.546 24.5499 194.133 23.8846 194.89 23.4064C195.648 22.9282 196.54 22.6891 197.568 22.6891C198.396 22.6891 199.135 22.843 199.784 23.1507C200.432 23.4538 200.956 23.8799 201.353 24.4292C201.756 24.9784 201.995 25.62 202.071 26.3539H200.004C199.89 25.8425 199.63 25.4022 199.223 25.0328C198.82 24.6635 198.28 24.4789 197.603 24.4789C197.011 24.4789 196.493 24.6351 196.048 24.9476C195.608 25.2554 195.264 25.6957 195.018 26.2686C194.772 26.8368 194.649 27.5092 194.649 28.2857C194.649 29.0811 194.77 29.7677 195.011 30.3453C195.252 30.923 195.593 31.3704 196.034 31.6877C196.479 32.0049 197.002 32.1635 197.603 32.1635C198.006 32.1635 198.37 32.0901 198.697 31.9434C199.029 31.7918 199.306 31.5764 199.528 31.2971C199.755 31.0177 199.914 30.6815 200.004 30.2885H202.071C201.995 30.994 201.765 31.6238 201.382 32.1777C200.998 32.7317 200.484 33.1673 199.841 33.4846C199.201 33.8018 198.451 33.9604 197.589 33.9604ZM209.043 33.9604C207.969 33.9604 207.043 33.7308 206.266 33.2715C205.495 32.8075 204.898 32.1564 204.477 31.3184C204.06 30.4756 203.852 29.4883 203.852 28.3567C203.852 27.2393 204.06 26.2544 204.477 25.4022C204.898 24.5499 205.485 23.8846 206.238 23.4064C206.996 22.9282 207.881 22.6891 208.894 22.6891C209.51 22.6891 210.106 22.7909 210.684 22.9945C211.262 23.1981 211.78 23.5177 212.239 23.9533C212.699 24.3889 213.061 24.9547 213.326 25.6507C213.591 26.342 213.724 27.1825 213.724 28.1721V28.9249H205.052V27.334H211.643C211.643 26.7753 211.529 26.2805 211.302 25.8496C211.075 25.414 210.755 25.0707 210.343 24.8198C209.936 24.5688 209.458 24.4434 208.908 24.4434C208.312 24.4434 207.791 24.5901 207.346 24.8837C206.906 25.1725 206.565 25.5513 206.323 26.0201C206.086 26.4841 205.968 26.9883 205.968 27.5328V28.7757C205.968 29.5049 206.096 30.1252 206.352 30.6365C206.612 31.1479 206.974 31.5385 207.438 31.8084C207.902 32.0736 208.444 32.2061 209.065 32.2061C209.467 32.2061 209.834 32.1493 210.165 32.0357C210.497 31.9173 210.783 31.7421 211.025 31.5101C211.266 31.2781 211.451 30.9917 211.579 30.6507L213.589 31.013C213.428 31.6048 213.139 32.1233 212.722 32.5684C212.31 33.0087 211.792 33.352 211.167 33.5982C210.547 33.8397 209.839 33.9604 209.043 33.9604ZM224.255 25.4945L222.33 25.8354C222.249 25.5892 222.122 25.3548 221.946 25.1323C221.776 24.9097 221.544 24.7274 221.25 24.5854C220.957 24.4434 220.59 24.3723 220.15 24.3723C219.548 24.3723 219.046 24.5073 218.644 24.7772C218.241 25.0423 218.04 25.3856 218.04 25.807C218.04 26.1716 218.175 26.4651 218.445 26.6877C218.715 26.9102 219.15 27.0925 219.752 27.2346L221.485 27.6323C222.489 27.8643 223.237 28.2218 223.729 28.7047C224.221 29.1877 224.468 29.815 224.468 30.5868C224.468 31.2402 224.278 31.8226 223.9 32.334C223.525 32.8406 223.002 33.2383 222.33 33.5272C221.662 33.816 220.888 33.9604 220.007 33.9604C218.786 33.9604 217.789 33.7 217.017 33.1792C216.246 32.6536 215.772 31.9078 215.597 30.9419L217.65 30.6294C217.777 31.1645 218.04 31.5693 218.438 31.8439C218.836 32.1138 219.354 32.2488 219.993 32.2488C220.689 32.2488 221.246 32.1043 221.662 31.8155C222.079 31.522 222.287 31.1645 222.287 30.7431C222.287 30.4022 222.159 30.1157 221.904 29.8837C221.653 29.6517 221.267 29.4765 220.746 29.3581L218.9 28.9533C217.882 28.7213 217.129 28.352 216.641 27.8453C216.158 27.3387 215.917 26.6971 215.917 25.9206C215.917 25.2767 216.096 24.7132 216.456 24.2303C216.816 23.7473 217.313 23.3709 217.948 23.101C218.582 22.8264 219.309 22.6891 220.128 22.6891C221.307 22.6891 222.235 22.9448 222.912 23.4561C223.589 23.9628 224.037 24.6422 224.255 25.4945Z" fill="white"/>
<defs>
<linearGradient id="paint0_linear_625_4400" x1="131" y1="0.740234" x2="131" y2="52.7402" gradientUnits="userSpaceOnUse">
<stop stop-color="#032E15"/>
<stop offset="1" stop-color="#016630"/>
</linearGradient>
</defs>
</svg>
