<svg width="146" height="50" viewBox="0 0 146 50" fill="none" xmlns="http://www.w3.org/2000/svg">
<path d="M0.53125 25.4062C0.53125 11.8753 11.5003 0.90625 25.0312 0.90625H121.031C134.562 0.90625 145.531 11.8753 145.531 25.4062C145.531 38.9372 134.562 49.9062 121.031 49.9062H25.0312C11.5003 49.9062 0.53125 38.9372 0.53125 25.4062Z" fill="url(#paint0_linear_17025_36)"/>
<path d="M37.2062 22.1453C37.1373 21.5334 36.8528 21.0593 36.3529 20.7232C35.853 20.3827 35.2239 20.2125 34.4654 20.2125C33.9224 20.2125 33.4527 20.2987 33.0562 20.4711C32.6597 20.6392 32.3516 20.8719 32.1318 21.1692C31.9163 21.4623 31.8086 21.7962 31.8086 22.1712C31.8086 22.4858 31.8819 22.7573 32.0284 22.9857C32.1792 23.2141 32.3753 23.4058 32.6166 23.561C32.8623 23.7118 33.1251 23.8389 33.4053 23.9424C33.6854 24.0415 33.9547 24.1234 34.2133 24.188L35.5061 24.5241C35.9284 24.6276 36.3615 24.7676 36.8054 24.9443C37.2493 25.121 37.6609 25.3537 38.0401 25.6424C38.4193 25.9312 38.7253 26.2889 38.958 26.7155C39.195 27.1421 39.3135 27.6528 39.3135 28.2475C39.3135 28.9974 39.1196 29.6632 38.7318 30.245C38.3482 30.8267 37.7901 31.2857 37.0575 31.6218C36.3292 31.958 35.4479 32.126 34.4137 32.126C33.4225 32.126 32.5649 31.9687 31.8409 31.6541C31.1169 31.3396 30.5502 30.8935 30.1408 30.3161C29.7314 29.7343 29.5052 29.0448 29.4621 28.2475H31.466C31.5048 28.7259 31.6599 29.1245 31.9314 29.4434C32.2072 29.758 32.5584 29.9928 32.9851 30.148C33.416 30.2988 33.8879 30.3742 34.4007 30.3742C34.9653 30.3742 35.4673 30.2859 35.9069 30.1092C36.3508 29.9282 36.6998 29.6783 36.9541 29.3594C37.2084 29.0361 37.3355 28.6591 37.3355 28.2281C37.3355 27.836 37.2234 27.5149 36.9994 27.265C36.7796 27.015 36.4801 26.8082 36.1008 26.6444C35.7259 26.4806 35.3014 26.3363 34.8274 26.2113L33.263 25.7847C32.2029 25.4959 31.3626 25.0714 30.742 24.5112C30.1258 23.951 29.8176 23.2097 29.8176 22.2875C29.8176 21.5247 30.0245 20.8589 30.4382 20.2901C30.8519 19.7212 31.4121 19.2795 32.1189 18.9649C32.8256 18.646 33.6229 18.4866 34.5106 18.4866C35.407 18.4866 36.1978 18.6439 36.883 18.9585C37.5725 19.2731 38.1155 19.7062 38.512 20.2578C38.9084 20.8051 39.1153 21.4342 39.1325 22.1453H37.2062ZM43.4781 26.0109V31.9062H41.5453V18.6676H43.4522V23.5933H43.5751C43.8078 23.0589 44.1633 22.6344 44.6416 22.3198C45.12 22.0053 45.7449 21.848 46.5163 21.848C47.1972 21.848 47.7919 21.988 48.3004 22.2681C48.8132 22.5482 49.2097 22.9663 49.4898 23.5222C49.7742 24.0738 49.9164 24.7633 49.9164 25.5907V31.9062H47.9836V25.8234C47.9836 25.0951 47.7962 24.5306 47.4213 24.1298C47.0463 23.7247 46.5249 23.5222 45.8569 23.5222C45.4001 23.5222 44.9907 23.6191 44.6287 23.8131C44.271 24.007 43.9888 24.2914 43.7819 24.6663C43.5794 25.037 43.4781 25.4851 43.4781 26.0109ZM56.678 32.1066C55.7471 32.1066 54.9348 31.8933 54.241 31.4667C53.5472 31.04 53.0085 30.4432 52.6249 29.6761C52.2414 28.909 52.0496 28.0126 52.0496 26.987C52.0496 25.957 52.2414 25.0564 52.6249 24.285C53.0085 23.5136 53.5472 22.9145 54.241 22.4879C54.9348 22.0613 55.7471 21.848 56.678 21.848C57.6088 21.848 58.4212 22.0613 59.115 22.4879C59.8088 22.9145 60.3475 23.5136 60.731 24.285C61.1146 25.0564 61.3064 25.957 61.3064 26.987C61.3064 28.0126 61.1146 28.909 60.731 29.6761C60.3475 30.4432 59.8088 31.04 59.115 31.4667C58.4212 31.8933 57.6088 32.1066 56.678 32.1066ZM56.6845 30.4841C57.2878 30.4841 57.7877 30.3247 58.1841 30.0058C58.5806 29.6869 58.8737 29.2624 59.0633 28.7323C59.2572 28.2023 59.3542 27.6183 59.3542 26.9805C59.3542 26.347 59.2572 25.7653 59.0633 25.2352C58.8737 24.7008 58.5806 24.272 58.1841 23.9488C57.7877 23.6256 57.2878 23.464 56.6845 23.464C56.0768 23.464 55.5726 23.6256 55.1718 23.9488C54.7754 24.272 54.4802 24.7008 54.2862 25.2352C54.0966 25.7653 54.0018 26.347 54.0018 26.9805C54.0018 27.6183 54.0966 28.2023 54.2862 28.7323C54.4802 29.2624 54.7754 29.6869 55.1718 30.0058C55.5726 30.3247 56.0768 30.4841 56.6845 30.4841ZM63.4638 35.6296V21.9772H65.3513V23.5868H65.5129C65.625 23.38 65.7866 23.1408 65.9977 22.8693C66.2089 22.5978 66.502 22.3608 66.8769 22.1582C67.2518 21.9514 67.7474 21.848 68.3636 21.848C69.1652 21.848 69.8806 22.0505 70.5098 22.4556C71.1389 22.8607 71.6324 23.4446 71.9901 24.2074C72.3521 24.9702 72.5331 25.8881 72.5331 26.9611C72.5331 28.0342 72.3542 28.9543 71.9965 29.7214C71.6388 30.4841 71.1476 31.0724 70.5227 31.4861C69.8978 31.8955 69.1846 32.1002 68.383 32.1002C67.7797 32.1002 67.2863 31.9989 66.9027 31.7964C66.5235 31.5938 66.2261 31.3568 66.0107 31.0853C65.7952 30.8138 65.6293 30.5725 65.5129 30.3613H65.3966V35.6296H63.4638ZM65.3578 26.9417C65.3578 27.6399 65.4591 28.2518 65.6616 28.7776C65.8642 29.3033 66.1572 29.7149 66.5407 30.0122C66.9243 30.3053 67.394 30.4518 67.9499 30.4518C68.5274 30.4518 69.0101 30.2988 69.3979 29.9928C69.7858 29.6826 70.0788 29.2624 70.277 28.7323C70.4796 28.2023 70.5809 27.6054 70.5809 26.9417C70.5809 26.2867 70.4817 25.6985 70.2835 25.177C70.0896 24.6556 69.7965 24.244 69.4044 23.9424C69.0165 23.6407 68.5317 23.4899 67.9499 23.4899C67.3897 23.4899 66.9157 23.6342 66.5278 23.923C66.1443 24.2117 65.8534 24.6146 65.6551 25.1318C65.4569 25.6489 65.3578 26.2522 65.3578 26.9417ZM90.3565 18.6676V31.9062H88.5206L81.7914 22.197H81.6686V31.9062H79.6711V18.6676H81.5199L88.2556 28.3897H88.3784V18.6676H90.3565ZM97.2974 32.1066C96.3666 32.1066 95.5542 31.8933 94.8604 31.4667C94.1666 31.04 93.6279 30.4432 93.2443 29.6761C92.8608 28.909 92.669 28.0126 92.669 26.987C92.669 25.957 92.8608 25.0564 93.2443 24.285C93.6279 23.5136 94.1666 22.9145 94.8604 22.4879C95.5542 22.0613 96.3666 21.848 97.2974 21.848C98.2282 21.848 99.0406 22.0613 99.7344 22.4879C100.428 22.9145 100.967 23.5136 101.35 24.285C101.734 25.0564 101.926 25.957 101.926 26.987C101.926 28.0126 101.734 28.909 101.35 29.6761C100.967 30.4432 100.428 31.04 99.7344 31.4667C99.0406 31.8933 98.2282 32.1066 97.2974 32.1066ZM97.3039 30.4841C97.9072 30.4841 98.4071 30.3247 98.8036 30.0058C99.2 29.6869 99.4931 29.2624 99.6827 28.7323C99.8766 28.2023 99.9736 27.6183 99.9736 26.9805C99.9736 26.347 99.8766 25.7653 99.6827 25.2352C99.4931 24.7008 99.2 24.272 98.8036 23.9488C98.4071 23.6256 97.9072 23.464 97.3039 23.464C96.6962 23.464 96.192 23.6256 95.7912 23.9488C95.3948 24.272 95.0996 24.7008 94.9056 25.2352C94.716 25.7653 94.6212 26.347 94.6212 26.9805C94.6212 27.6183 94.716 28.2023 94.9056 28.7323C95.0996 29.2624 95.3948 29.6869 95.7912 30.0058C96.192 30.3247 96.6962 30.4841 97.3039 30.4841ZM105.934 31.9062L103.012 21.9772H105.009L106.955 29.2689H107.052L109.004 21.9772H111.001L112.941 29.2365H113.038L114.971 21.9772H116.968L114.053 31.9062H112.081L110.064 24.7375H109.916L107.899 31.9062H105.934Z" fill="white"/>
<defs>
<linearGradient id="paint0_linear_17025_36" x1="73.0312" y1="0.90625" x2="73.0312" y2="49.9062" gradientUnits="userSpaceOnUse">
<stop stop-color="#032E15"/>
<stop offset="1" stop-color="#016630"/>
</linearGradient>
</defs>
</svg>
