<svg width="498" height="481" viewBox="0 0 498 481" fill="none" xmlns="http://www.w3.org/2000/svg">
<ellipse cx="248.902" cy="7.78948" rx="7.25334" ry="7.25334" fill="url(#paint0_linear_17025_153)" fill-opacity="0.6"/>
<ellipse cx="143.538" cy="473.342" rx="7.25334" ry="7.25334" fill="url(#paint1_linear_17025_153)" fill-opacity="0.6"/>
<ellipse cx="7.25334" cy="7.25334" rx="7.25334" ry="7.25334" transform="matrix(-1 0 0 1 361.555 466.089)" fill="url(#paint2_linear_17025_153)" fill-opacity="0.6"/>
<ellipse cx="7.46932" cy="214.788" rx="7.25334" ry="7.25334" transform="rotate(90 7.46932 214.788)" fill="url(#paint3_linear_17025_153)" fill-opacity="0.6"/>
<ellipse cx="7.25334" cy="7.25334" rx="7.25334" ry="7.25334" transform="matrix(4.37115e-08 1 1 -4.37113e-08 483.121 207.534)" fill="url(#paint4_linear_17025_153)" fill-opacity="0.6"/>
<circle cx="7.25335" cy="7.25335" r="7.25335" transform="matrix(0.707107 0.707106 -0.707107 0.707106 31.6758 355.364)" fill="url(#paint5_linear_17025_153)" fill-opacity="0.6"/>
<circle cx="7.25335" cy="7.25335" r="7.25335" transform="matrix(-0.707107 0.707106 0.707107 0.707106 466.32 355.364)" fill="url(#paint6_linear_17025_153)" fill-opacity="0.6"/>
<circle cx="7.25335" cy="7.25335" r="7.25335" transform="matrix(-0.707107 0.707106 -0.707107 -0.707106 101.316 66.2715)" fill="url(#paint7_linear_17025_153)" fill-opacity="0.6"/>
<circle cx="7.25335" cy="7.25335" r="7.25335" transform="matrix(0.707107 0.707106 0.707107 -0.707106 396.676 66.2715)" fill="url(#paint8_linear_17025_153)" fill-opacity="0.6"/>
<defs>
<linearGradient id="paint0_linear_17025_153" x1="248.902" y1="0.536133" x2="248.902" y2="15.0428" gradientUnits="userSpaceOnUse">
<stop stop-color="#032E15"/>
<stop offset="1" stop-color="#016630"/>
</linearGradient>
<linearGradient id="paint1_linear_17025_153" x1="143.538" y1="466.089" x2="143.538" y2="480.596" gradientUnits="userSpaceOnUse">
<stop stop-color="#032E15"/>
<stop offset="1" stop-color="#016630"/>
</linearGradient>
<linearGradient id="paint2_linear_17025_153" x1="7.25334" y1="0" x2="7.25334" y2="14.5067" gradientUnits="userSpaceOnUse">
<stop stop-color="#032E15"/>
<stop offset="1" stop-color="#016630"/>
</linearGradient>
<linearGradient id="paint3_linear_17025_153" x1="7.46932" y1="207.534" x2="7.46932" y2="222.041" gradientUnits="userSpaceOnUse">
<stop stop-color="#032E15"/>
<stop offset="1" stop-color="#016630"/>
</linearGradient>
<linearGradient id="paint4_linear_17025_153" x1="7.25334" y1="0" x2="7.25334" y2="14.5067" gradientUnits="userSpaceOnUse">
<stop stop-color="#032E15"/>
<stop offset="1" stop-color="#016630"/>
</linearGradient>
<linearGradient id="paint5_linear_17025_153" x1="7.25335" y1="0" x2="7.25335" y2="14.5067" gradientUnits="userSpaceOnUse">
<stop stop-color="#032E15"/>
<stop offset="1" stop-color="#016630"/>
</linearGradient>
<linearGradient id="paint6_linear_17025_153" x1="7.25335" y1="0" x2="7.25335" y2="14.5067" gradientUnits="userSpaceOnUse">
<stop stop-color="#032E15"/>
<stop offset="1" stop-color="#016630"/>
</linearGradient>
<linearGradient id="paint7_linear_17025_153" x1="7.25335" y1="0" x2="7.25335" y2="14.5067" gradientUnits="userSpaceOnUse">
<stop stop-color="#032E15"/>
<stop offset="1" stop-color="#016630"/>
</linearGradient>
<linearGradient id="paint8_linear_17025_153" x1="7.25335" y1="0" x2="7.25335" y2="14.5067" gradientUnits="userSpaceOnUse">
<stop stop-color="#032E15"/>
<stop offset="1" stop-color="#016630"/>
</linearGradient>
</defs>
</svg>
