<svg width="62" height="24" viewBox="0 0 62 24" fill="none" xmlns="http://www.w3.org/2000/svg">
<path d="M14.6921 8.2152C14.5714 7.76776 14.3938 7.37358 14.1594 7.03267C13.9251 6.68466 13.6374 6.38991 13.2965 6.14844C12.9556 5.90696 12.565 5.72585 12.1246 5.60511C11.6843 5.47727 11.2013 5.41335 10.6758 5.41335C9.61754 5.41335 8.70135 5.66903 7.9272 6.1804C7.16016 6.69176 6.56712 7.4375 6.14808 8.41761C5.72905 9.39062 5.51953 10.5732 5.51953 11.9652C5.51953 13.3643 5.72195 14.5575 6.12678 15.5447C6.53161 16.532 7.11754 17.2848 7.88459 17.8033C8.65163 18.3217 9.58203 18.581 10.6758 18.581C11.6417 18.581 12.4585 18.4247 13.1261 18.1122C13.8008 17.7926 14.3121 17.3416 14.6602 16.7592C15.0082 16.1768 15.1822 15.4915 15.1822 14.7031L16.1623 14.8203H10.8569V10.9744H20.2639V13.8615C20.2639 15.8146 19.8484 17.4872 19.0174 18.8793C18.1935 20.2713 17.0572 21.3402 15.6083 22.0859C14.1665 22.8317 12.5082 23.2045 10.6332 23.2045C8.5522 23.2045 6.72337 22.7536 5.14666 21.8516C3.56996 20.9496 2.34126 19.6641 1.46058 17.995C0.579901 16.3189 0.13956 14.3303 0.13956 12.0291C0.13956 10.2393 0.405895 8.65199 0.938565 7.26705C1.47124 5.875 2.21342 4.69602 3.16513 3.73011C4.12393 2.7642 5.23189 2.03267 6.48899 1.53551C7.7532 1.03835 9.11328 0.789772 10.5692 0.789772C11.8335 0.789772 13.0089 0.97088 14.0955 1.3331C15.1893 1.69531 16.1552 2.20668 16.9933 2.86719C17.8384 3.5277 18.5238 4.3125 19.0494 5.22159C19.5749 6.13068 19.9016 7.12855 20.0295 8.2152H14.6921ZM21.6914 5.37074V1.08807H40.1325V5.37074H33.5167V22.9062H28.3178V5.37074H21.6914ZM56.03 8.2152C55.9093 7.76776 55.7317 7.37358 55.4973 7.03267C55.263 6.68466 54.9753 6.38991 54.6344 6.14844C54.2935 5.90696 53.9029 5.72585 53.4625 5.60511C53.0222 5.47727 52.5392 5.41335 52.0137 5.41335C50.9554 5.41335 50.0392 5.66903 49.2651 6.1804C48.498 6.69176 47.905 7.4375 47.486 8.41761C47.0669 9.39062 46.8574 10.5732 46.8574 11.9652C46.8574 13.3643 47.0598 14.5575 47.4647 15.5447C47.8695 16.532 48.4554 17.2848 49.2225 17.8033C49.9895 18.3217 50.9199 18.581 52.0137 18.581C52.9796 18.581 53.7963 18.4247 54.464 18.1122C55.1387 17.7926 55.65 17.3416 55.998 16.7592C56.3461 16.1768 56.5201 15.4915 56.5201 14.7031L57.5002 14.8203H52.1948V10.9744H61.6017V13.8615C61.6017 15.8146 61.1863 17.4872 60.3553 18.8793C59.5314 20.2713 58.3951 21.3402 56.9462 22.0859C55.5044 22.8317 53.8461 23.2045 51.9711 23.2045C49.8901 23.2045 48.0613 22.7536 46.4846 21.8516C44.9078 20.9496 43.6792 19.6641 42.7985 17.995C41.9178 16.3189 41.4775 14.3303 41.4775 12.0291C41.4775 10.2393 41.7438 8.65199 42.2765 7.26705C42.8091 5.875 43.5513 4.69602 44.503 3.73011C45.4618 2.7642 46.5698 2.03267 47.8269 1.53551C49.0911 1.03835 50.4512 0.789772 51.9071 0.789772C53.1713 0.789772 54.3468 0.97088 55.4334 1.3331C56.5272 1.69531 57.4931 2.20668 58.3311 2.86719C59.1763 3.5277 59.8617 4.3125 60.3873 5.22159C60.9128 6.13068 61.2395 7.12855 61.3674 8.2152H56.03Z" fill="url(#paint0_linear_17005_93)" fill-opacity="0.6"/>
<defs>
<linearGradient id="paint0_linear_17005_93" x1="61.2227" y1="-10.0938" x2="61.2227" y2="36.9062" gradientUnits="userSpaceOnUse">
<stop stop-color="#032E15"/>
<stop offset="1" stop-color="#016630"/>
</linearGradient>
</defs>
</svg>
