<svg width="27" height="27" viewBox="0 0 27 27" fill="none" xmlns="http://www.w3.org/2000/svg">
<path d="M26.4243 24.063L21.2894 18.9281C22.8456 16.8909 23.6991 14.4198 23.6995 11.8123C23.6995 8.66998 22.4756 5.71554 20.2533 3.49361C18.0314 1.27169 15.0773 0.0478516 11.9346 0.0478516C8.79231 0.0478516 5.83786 1.27169 3.61594 3.49361C-0.970937 8.08087 -0.970937 15.5445 3.61594 20.131C5.83786 22.3533 8.79231 23.5771 11.9346 23.5771C14.5421 23.5768 17.0132 22.7233 19.0504 21.167L24.1854 26.302C24.4942 26.6112 24.8997 26.7658 25.3048 26.7658C25.7099 26.7658 26.1154 26.6112 26.4243 26.302C27.0428 25.6839 27.0428 24.6811 26.4243 24.063ZM5.85487 17.892C2.50266 14.5398 2.50304 9.08514 5.85487 5.73254C7.47879 4.10901 9.63809 3.21452 11.9346 3.21452C14.2315 3.21452 16.3905 4.10901 18.0144 5.73254C19.6383 7.35647 20.5328 9.51577 20.5328 11.8123C20.5328 14.1092 19.6383 16.2681 18.0144 17.892C16.3905 19.516 14.2315 20.4105 11.9346 20.4105C9.63809 20.4105 7.47879 19.516 5.85487 17.892Z" fill="#032E15"/>
</svg>
